<svg width="16" height="16" viewBox="0 0 16 16" fill="none" xmlns="http://www.w3.org/2000/svg">
<path fill-rule="evenodd" clip-rule="evenodd" d="M5.86615 2.1333C6.00759 2.1333 6.14325 2.18949 6.24327 2.28951C6.34329 2.38953 6.39948 2.52519 6.39948 2.66663V5.86663C6.39948 6.00808 6.34329 6.14374 6.24327 6.24376C6.14325 6.34378 6.00759 6.39997 5.86615 6.39997H2.66615C2.5247 6.39997 2.38904 6.34378 2.28902 6.24376C2.189 6.14374 2.13281 6.00808 2.13281 5.86663C2.13281 5.72519 2.189 5.58953 2.28902 5.48951C2.38904 5.38949 2.5247 5.3333 2.66615 5.3333H5.33281V2.66663C5.33281 2.52519 5.389 2.38953 5.48902 2.28951C5.58904 2.18949 5.7247 2.1333 5.86615 2.1333V2.1333ZM10.1328 2.1333C10.2743 2.1333 10.4099 2.18949 10.5099 2.28951C10.61 2.38953 10.6661 2.52519 10.6661 2.66663V5.3333H13.3328C13.4743 5.3333 13.6099 5.38949 13.7099 5.48951C13.81 5.58953 13.8661 5.72519 13.8661 5.86663C13.8661 6.00808 13.81 6.14374 13.7099 6.24376C13.6099 6.34378 13.4743 6.39997 13.3328 6.39997H10.1328C9.99136 6.39997 9.85571 6.34378 9.75569 6.24376C9.65567 6.14374 9.59948 6.00808 9.59948 5.86663V2.66663C9.59948 2.52519 9.65567 2.38953 9.75569 2.28951C9.85571 2.18949 9.99136 2.1333 10.1328 2.1333V2.1333ZM2.13281 10.1333C2.13281 9.99185 2.189 9.8562 2.28902 9.75618C2.38904 9.65616 2.5247 9.59997 2.66615 9.59997H5.86615C6.00759 9.59997 6.14325 9.65616 6.24327 9.75618C6.34329 9.8562 6.39948 9.99185 6.39948 10.1333V13.3333C6.39948 13.4748 6.34329 13.6104 6.24327 13.7104C6.14325 13.8104 6.00759 13.8666 5.86615 13.8666C5.7247 13.8666 5.58904 13.8104 5.48902 13.7104C5.389 13.6104 5.33281 13.4748 5.33281 13.3333V10.6666H2.66615C2.5247 10.6666 2.38904 10.6104 2.28902 10.5104C2.189 10.4104 2.13281 10.2748 2.13281 10.1333ZM9.59948 10.1333C9.59948 9.99185 9.65567 9.8562 9.75569 9.75618C9.85571 9.65616 9.99136 9.59997 10.1328 9.59997H13.3328C13.4743 9.59997 13.6099 9.65616 13.7099 9.75618C13.81 9.8562 13.8661 9.99185 13.8661 10.1333C13.8661 10.2748 13.81 10.4104 13.7099 10.5104C13.6099 10.6104 13.4743 10.6666 13.3328 10.6666H10.6661V13.3333C10.6661 13.4748 10.61 13.6104 10.5099 13.7104C10.4099 13.8104 10.2743 13.8666 10.1328 13.8666C9.99136 13.8666 9.85571 13.8104 9.75569 13.7104C9.65567 13.6104 9.59948 13.4748 9.59948 13.3333V10.1333Z" fill="white"/>
</svg>
