<svg width="16" height="16" viewBox="0 0 16 16" fill="none" xmlns="http://www.w3.org/2000/svg">
<path d="M2.66602 9.3333V6.66663C2.66602 6.48982 2.73625 6.32025 2.86128 6.19523C2.9863 6.0702 3.15587 5.99997 3.33268 5.99997H5.13068C5.26237 6 5.39112 5.96102 5.50068 5.88797L8.29602 4.02397C8.39651 3.95692 8.51334 3.91844 8.634 3.91263C8.75467 3.90683 8.87465 3.93393 8.98111 3.99103C9.08758 4.04813 9.17652 4.13309 9.23845 4.23682C9.30037 4.34055 9.33294 4.45916 9.33268 4.57997V11.42C9.3327 11.5407 9.29995 11.6591 9.23793 11.7626C9.17591 11.8662 9.08695 11.9509 8.98053 12.0079C8.87411 12.0648 8.75422 12.0918 8.63367 12.0859C8.51312 12.0801 8.39642 12.0416 8.29602 11.9746L5.50068 10.1113C5.39104 10.0385 5.2623 9.99974 5.13068 9.99997H3.33268C3.15587 9.99997 2.9863 9.92973 2.86128 9.8047C2.73625 9.67968 2.66602 9.51011 2.66602 9.3333Z" stroke="white"/>
<path d="M12 6.5L15 9.5M15 6.5L12 9.5" stroke="white" stroke-linecap="round" stroke-linejoin="round"/>
</svg>
